<svg id="Layer_1" data-name="Layer 1" xmlns="http://www.w3.org/2000/svg" viewBox="0 0 950 650">
  <defs>
    <style>
      .cls-1 {
        fill: #9ed1e0;
      }

      .cls-2, .cls-4 {
        fill: #74a951;
      }

      .cls-3 {
        fill: #fff;
      }

      .cls-4 {
        font-size: 180px;
        font-family: ProximaNova-Bold, Proxima Nova;
        font-weight: 700;
      }

      .cls-5 {
        font-size: 100px;
      }

      .cls-10, .cls-5 {
        fill: #363938;
        font-family: ProximaNova-Semibold, Proxima Nova;
        font-weight: 600;
      }

      .cls-6 {
        letter-spacing: 0em;
      }

      .cls-7 {
        letter-spacing: 0em;
      }

      .cls-8 {
        letter-spacing: -0.02em;
      }

      .cls-9 {
        letter-spacing: -0.04em;
      }

      .cls-10 {
        font-size: 60px;
      }
    </style>
  </defs>
  <title>Artboard 1</title>
  <path class="cls-1" d="M117.6,276s-81-30-78,13,86,40,78,62-27.3,39.7-2,54c23,13,59-37,66-11s-18,55,18,77c30.77,18.8,108-72,131-60s-6,45,7,56c15,11,39,30,188-65,41-12,19,20,46,31s77,18,105-71,17-162,17-162Z"/>
  <path class="cls-2" d="M278.32,389.53s-8-29-122-63-103-154,80-249c0,0,29,30,80,35,0,0,23-22,54-9s18-16,0-35,17-26,34-20,26,24,52-19,55-2,59,19,14-11,40-8,31,27,10,48,63-21,87,8,51,17,86-17c0,0,9,37,72,53s159,189-95,257c0,0-40-42-51-43s-35,17-62,17-10,17,6,17,17,18-33,26c-37.5,6-54.5,13.5-55.5,34.5-5,3-23.5,2.5-26,8,0,0,20.31-41.1-80.5-28.5-16,2-23-3-6.5-17.5,17.81-15.65-6.5,1.5-42.5-16.5s-20-60-43-43S303.32,352.53,278.32,389.53Z"/>
  <path class="cls-3" d="M306.82,243c0,48.47-23.55,90-57.11,107.81C238.53,356.76,219.82,375,212.82,394c-7-22-26.65-37.81-38.53-44.65-32.15-18.5-54.47-59.16-54.47-106.35,0-48.46,23.54-90,57.1-107.8,11.19-5.92,29.9-22.2,35.9-38.2,6,16,16,27,28.3,34.26C279.18,146.11,306.82,190.53,306.82,243Z"/>
  <path class="cls-3" d="M838.82,243c0,48.47-23.55,90-57.11,107.81C770.53,356.76,751.82,375,744.82,394c-7-22-26.65-37.81-38.53-44.65-32.15-18.5-54.47-59.16-54.47-106.35,0-48.46,23.54-90,57.1-107.8,11.19-5.92,29.9-22.2,35.9-38.2,6,16,16,27,28.3,34.26C811.18,146.11,838.82,190.53,838.82,243Z"/>
  <path class="cls-3" d="M497.82,433h14s-25-20,0-32,57,0,56-21-38-16-20-26,67-4,72-25-28-27-23-36,48-53,29-73-49-4-34-27,37-47,20-68-52,8-53-5,16-20,13-39-23-25-37-18-18,10-19-3-24-30-37-21-28,46-46,32-45-6-40,14,45,41,10,35-59-3-57,18,68,60,39,60-41-23-51,3,88,112,54,113-38,31-18,44,88,7,69,20-35,29-15,29,55-17,55-7S497.82,433,497.82,433Z"/>
  <text class="cls-4" transform="translate(186.03 302.73)">I</text>
  <text class="cls-4" transform="translate(422.03 302.73)">H</text>
  <text class="cls-4" transform="translate(696.03 302.73)">S</text>
  <text class="cls-5" transform="translate(5.21 561.63)">IDRÆ<tspan class="cls-6" x="255.6" y="0">T</tspan><tspan class="cls-7" x="312.8" y="0">SH</tspan><tspan class="cls-8" x="444.5" y="0">Ø</tspan><tspan x="519" y="0">JS</tspan><tspan class="cls-9" x="626.5" y="0">K</tspan><tspan x="684.59" y="0">OLEN</tspan></text>
  <text class="cls-10" transform="translate(277.13 638.63)">SØNDERBORG</text>
</svg>
