<svg id="Layer_1" data-name="Layer 1" xmlns="http://www.w3.org/2000/svg" viewBox="0 0 140 80">
  <defs>
    <style>
      .cls-1 {
        fill: #9ed1e0;
      }

      .cls-2, .cls-5, .cls-6 {
        fill: #74a951;
      }

      .cls-3 {
        fill: #fff;
      }

      .cls-4, .cls-5, .cls-6 {
        isolation: isolate;
      }

      .cls-5 {
        font-size: 25.52px;
      }

      .cls-5, .cls-6 {
        font-family: ProximaNova-Bold, Proxima Nova;
        font-weight: 700;
      }

      .cls-6 {
        font-size: 27.11px;
      }
    </style>
  </defs>
  <title>Artboard 2</title>
  <g id="logo">
    <path id="Path_1" data-name="Path 1" class="cls-1" d="M15.36,45.44s-12.66-4.7-12.19,2,13.45,6.25,12.19,9.69-4.26,6.21-.31,8.45c3.59,2,9.22-5.79,10.32-1.72s-2.82,8.6,2.81,12C33,78.87,45.07,64.67,48.66,66.55s-.93,7,1.1,8.75C52.11,77,55.86,80,79.16,65.14c6.41-1.88,3,3.12,7.19,4.84s12,2.82,16.42-11.1a62.1,62.1,0,0,0,2.66-25.33Z"/>
    <path id="Path_2" data-name="Path 2" class="cls-2" d="M40.5,63.19s-1.25-4.54-19.08-9.85S5.31,29.25,33.93,14.4a21.27,21.27,0,0,0,12.51,5.47,8.08,8.08,0,0,1,8.44-1.4c4.85,2,2.82-2.51,0-5.48s2.66-4.06,5.32-3.12,4.06,3.75,8.13-3,8.6-.32,9.23,3,2.19-1.72,6.25-1.25,4.85,4.22,1.56,7.5S95.23,12.84,99,17.37s8,2.66,13.45-2.66c0,0,1.4,5.79,11.25,8.3s24.87,29.55-14.85,40.19c0,0-6.26-6.57-8-6.72s-5.47,2.65-9.69,2.65-1.56,2.66.94,2.66,2.66,2.82-5.16,4.07c-5.87.94-8.52,2.11-8.68,5.39-.78.47-3.67.39-4.07,1.25,0,0,3.18-6.42-12.58-4.45-2.51.32-3.6-.47-1-2.74,2.78-2.45-1,.23-6.65-2.58S50.82,53.35,47.22,56,44.4,57.4,40.5,63.19Z"/>
    <path id="Path_3" data-name="Path 3" class="cls-3" d="M45,40.28c0,7.57-3.68,14.07-8.93,16.85a14.68,14.68,0,0,0-5.77,6.76,13.54,13.54,0,0,0-6-7c-5-2.9-8.52-9.25-8.52-16.63,0-7.58,3.68-14.08,8.93-16.86a13.65,13.65,0,0,0,5.61-6,10.15,10.15,0,0,0,4.43,5.35C40.63,25.13,45,32.07,45,40.28Z"/>
    <path id="Path_4" data-name="Path 4" class="cls-3" d="M128.14,40.28c0,7.57-3.68,14.07-8.93,16.85a14.63,14.63,0,0,0-5.77,6.76,13.56,13.56,0,0,0-6-7c-5-2.9-8.51-9.25-8.51-16.63,0-7.58,3.68-14.08,8.93-16.86a13.71,13.71,0,0,0,5.61-6,10.15,10.15,0,0,0,4.43,5.35C123.82,25.13,128.14,32.07,128.14,40.28Z"/>
    <path id="Path_5" data-name="Path 5" class="cls-3" d="M74.82,70H77s-3.91-3.13,0-5,8.91,0,8.75-3.28-5.94-2.5-3.12-4.07S93.11,57,93.9,53.72s-4.38-4.22-3.6-5.62,7.5-8.3,4.53-11.42-7.65-.62-5.31-4.22,5.78-7.35,3.12-10.63-8.13,1.25-8.29-.79,2.5-3.12,2-6.09a3.94,3.94,0,0,0-4.56-3.24,3.76,3.76,0,0,0-1.22.42c-2.19,1.09-2.82,1.56-3-.47S73.88,7,71.84,8.38s-4.38,7.19-7.19,5-7-.94-6.26,2.19S65.43,22,60,21s-9.23-.47-8.92,2.82,10.64,9.38,6.1,9.38-6.41-3.6-8,.47,13.76,17.51,8.44,17.67-5.93,4.84-2.81,6.88,13.76,1.09,10.79,3.12-5.47,4.54-2.34,4.54,8.6-2.66,8.6-1.1S74.82,70,74.82,70Z"/>
    <g id="I" class="cls-4">
      <text class="cls-5" transform="translate(26.06 47.58)">I</text>
    </g>
    <g id="H" class="cls-4">
      <text class="cls-6" transform="translate(62.97 49.18)">H</text>
    </g>
    <g id="S" class="cls-4">
      <text class="cls-5" transform="translate(105.81 47.58)">S</text>
    </g>
  </g>
</svg>
