<?xml version="1.0" encoding="utf-8"?>
<!-- Generator: Adobe Illustrator 24.0.3, SVG Export Plug-In . SVG Version: 6.00 Build 0)  -->
<svg version="1.1" id="Layer_1" xmlns="http://www.w3.org/2000/svg" xmlns:xlink="http://www.w3.org/1999/xlink" x="0px" y="0px"
	 viewBox="0 0 140 80" style="enable-background:new 0 0 140 80;" xml:space="preserve">
<style type="text/css">
	.st0{fill:#9ED1E0;}
	.st1{fill:#74A951;}
	.st2{fill:#FFFFFF;}
	.st3{enable-background:new    ;}
</style>
<title>Artboard 2</title>
<g>
	<path id="Path_1" class="st0" d="M15.4,45.4c0,0-12.7-4.7-12.2,2s13.4,6.2,12.2,9.7s-4.3,6.2-0.3,8.4c3.6,2,9.2-5.8,10.3-1.7
		s-2.8,8.6,2.8,12c4.8,3,16.9-11.2,20.5-9.3s-0.9,7,1.1,8.8c2.4,1.7,6.1,4.7,29.4-10.2c6.4-1.9,3,3.1,7.2,4.8s12,2.8,16.4-11.1
		c2.6-8.2,3.5-16.8,2.7-25.3L15.4,45.4z"/>
	<path id="Path_2" class="st1" d="M40.5,63.2c0,0-1.2-4.5-19.1-9.9S5.3,29.2,33.9,14.4c3.5,3.1,7.9,5.1,12.5,5.5
		c2.3-2,5.6-2.6,8.4-1.4c4.8,2,2.8-2.5,0-5.5s2.7-4.1,5.3-3.1s4.1,3.8,8.1-3s8.6-0.3,9.2,3s2.2-1.7,6.2-1.2s4.8,4.2,1.6,7.5
		s9.9-3.3,13.6,1.3s8,2.7,13.4-2.7c0,0,1.4,5.8,11.2,8.3s24.9,29.5-14.8,40.2c0,0-6.3-6.6-8-6.7s-5.5,2.7-9.7,2.7s-1.6,2.7,0.9,2.7
		s2.7,2.8-5.2,4.1c-5.9,0.9-8.5,2.1-8.7,5.4c-0.8,0.5-3.7,0.4-4.1,1.2c0,0,3.2-6.4-12.6-4.4c-2.5,0.3-3.6-0.5-1-2.7
		c2.8-2.5-1,0.2-6.7-2.6s-3.1-9.4-6.7-6.7S44.4,57.4,40.5,63.2z"/>
	<path id="Path_3" class="st2" d="M45,40.3c0,7.6-3.7,14.1-8.9,16.8c-2.6,1.6-4.6,4-5.8,6.8c-1.1-3-3.2-5.4-6-7
		c-5-2.9-8.5-9.2-8.5-16.6c0-7.6,3.7-14.1,8.9-16.9c2.4-1.4,4.4-3.5,5.6-6c0.8,2.2,2.4,4.1,4.4,5.4C40.6,25.1,45,32.1,45,40.3z"/>
	<path id="Path_4" class="st2" d="M128.1,40.3c0,7.6-3.7,14.1-8.9,16.8c-2.6,1.6-4.6,4-5.8,6.8c-1.1-3-3.2-5.4-6-7
		c-5-2.9-8.5-9.2-8.5-16.6c0-7.6,3.7-14.1,8.9-16.9c2.4-1.4,4.4-3.5,5.6-6c0.8,2.2,2.4,4.1,4.4,5.4
		C123.8,25.1,128.1,32.1,128.1,40.3z"/>
	<path id="Path_5" class="st2" d="M74.8,70H77c0,0-3.9-3.1,0-5s8.9,0,8.8-3.3s-5.9-2.5-3.1-4.1s10.5-0.7,11.3-3.9s-4.4-4.2-3.6-5.6
		s7.5-8.3,4.5-11.4s-7.7-0.6-5.3-4.2s5.8-7.4,3.1-10.6s-8.1,1.2-8.3-0.8s2.5-3.1,2-6.1c-0.4-2.1-2.4-3.6-4.5-3.2c0,0,0,0,0,0
		c-0.4,0.1-0.8,0.2-1.2,0.4c-2.2,1.1-2.8,1.6-3-0.5S73.9,7,71.8,8.4s-4.4,7.2-7.2,5s-7-0.9-6.3,2.2s7,6.4,1.6,5.4s-9.2-0.5-8.9,2.8
		s10.6,9.4,6.1,9.4s-6.4-3.6-8,0.5s13.8,17.5,8.4,17.7s-5.9,4.8-2.8,6.9s13.8,1.1,10.8,3.1s-5.5,4.5-2.3,4.5s8.6-2.7,8.6-1.1
		C71.9,66.3,74.8,70,74.8,70z"/>
	<g id="I">
		<g class="st3">
			<path class="st1" d="M27.7,30.6h3.6v17h-3.6V30.6z"/>
		</g>
	</g>
	<g id="H">
		<g class="st3">
			<path class="st1" d="M77.2,41.6h-8.5v7.6h-3.8V31.1h3.8v7.1h8.5v-7.1H81v18.1h-3.9V41.6z"/>
		</g>
	</g>
	<g id="S">
		<g class="st3">
			<path class="st1" d="M108.3,42.4c1.2,1.2,3.1,2.3,5.4,2.3c2,0,3-0.9,3-1.9c0-1.3-1.5-1.7-3.4-2.2c-2.8-0.6-6.4-1.4-6.4-5.2
				c0-2.8,2.4-5.1,6.5-5.1c2.7,0,4.9,0.8,6.6,2.4l-2,2.7c-1.4-1.3-3.2-1.9-4.9-1.9c-1.6,0-2.5,0.7-2.5,1.7c0,1.1,1.4,1.5,3.4,2
				c2.8,0.6,6.4,1.5,6.4,5.3c0,3.1-2.2,5.5-6.8,5.5c-3.3,0-5.6-1.1-7.2-2.7L108.3,42.4z"/>
		</g>
	</g>
</g>
</svg>
