<svg id="Layer_1" data-name="Layer 1" xmlns="http://www.w3.org/2000/svg" viewBox="0 0 140 35">
  <defs>
    <style>
      .cls-1 {
        isolation: isolate;
      }

      .cls-2 {
        fill: #fff;
      }
    </style>
  </defs>
  <title>Artboard 3</title>
  <g id="IDRÆTSHØJSKOLEN_SØNDERBORG" data-name="IDRÆTSHØJSKOLEN SØNDERBORG" class="cls-1">
    <g class="cls-1">
      <path class="cls-2" d="M4.44,5V15H2.13V5Z"/>
      <path class="cls-2" d="M9.84,5a5.24,5.24,0,0,1,3.94,1.38,4.74,4.74,0,0,1,1.44,3.58,4.8,4.8,0,0,1-1.36,3.54A5.38,5.38,0,0,1,9.91,15H6.67V5ZM9,13H9.6a3.6,3.6,0,0,0,2.28-.67,3.14,3.14,0,0,0,1-2.42A3,3,0,0,0,12,7.75,3.3,3.3,0,0,0,9.6,6.9H9Z"/>
      <path class="cls-2" d="M20.46,5A3.59,3.59,0,0,1,23,5.82a3,3,0,0,1,.87,2.23,2.76,2.76,0,0,1-.78,2,3.22,3.22,0,0,1-1.4.77L24.78,15H22L19.26,11V15H17V5Zm-1.2,4.54h.52a1.89,1.89,0,0,0,1.38-.43,1.34,1.34,0,0,0,.38-1,1.2,1.2,0,0,0-.47-1,2.27,2.27,0,0,0-1.27-.31h-.54Z"/>
      <path class="cls-2" d="M32.19,13H28.36L27.61,15h-2.4l4.1-10H35l.72,2H32.23L33,8.83h3.45l.75,1.95H33.73L34.62,13H38.1L38.83,15H33Zm-.63-1.77L30.33,8,29,11.25Z"/>
      <path class="cls-2" d="M43.53,6.9v8H41.22v-8H39V5H45.7v2Z"/>
      <path class="cls-2" d="M51.66,7.39A2.47,2.47,0,0,0,50,6.67,1.26,1.26,0,0,0,49,7a.88.88,0,0,0-.25.63A.68.68,0,0,0,49,8.2a3.85,3.85,0,0,0,1.26.57l.75.29a4,4,0,0,1,1.37.76,2.52,2.52,0,0,1,.73,1.86,3.63,3.63,0,0,1-.88,2.48,3.89,3.89,0,0,1-2.84,1,4.3,4.3,0,0,1-2-.42,6.49,6.49,0,0,1-1.47-1.1L47.11,12a6.43,6.43,0,0,0,.93.77,2.34,2.34,0,0,0,1.26.36,1.58,1.58,0,0,0,1.05-.35,1,1,0,0,0,.36-.81.88.88,0,0,0-.34-.72,5,5,0,0,0-1.17-.55l-.83-.29A3.34,3.34,0,0,1,47,9.62a2.41,2.41,0,0,1-.6-1.73,3.06,3.06,0,0,1,.87-2.25,3.21,3.21,0,0,1,2.47-.92,4.84,4.84,0,0,1,3,1Z"/>
      <path class="cls-2" d="M57.06,8.76h4V5h2.31V15H61V10.71h-4V15H54.75V5h2.31Z"/>
      <path class="cls-2" d="M66.22,13.12a4.81,4.81,0,0,1-1-3.08,5.53,5.53,0,0,1,1.55-3.85,5.27,5.27,0,0,1,3.91-1.47,5.39,5.39,0,0,1,3.13.87l1.32-1.32,1.25,1.2L75,6.78a5,5,0,0,1,1,3.13,5.21,5.21,0,0,1-1.56,3.8,5.38,5.38,0,0,1-3.87,1.47,5.57,5.57,0,0,1-3.15-.89l-1.33,1.33L64.9,14.43Zm5.91-5.91a3.57,3.57,0,0,0-1.52-.36,3,3,0,0,0-2.19.86A3.09,3.09,0,0,0,67.54,10a2.87,2.87,0,0,0,.35,1.46Zm-3,5.48A3.28,3.28,0,0,0,70.6,13a3.06,3.06,0,0,0,2.22-.85,3.1,3.1,0,0,0,.87-2.32,2.78,2.78,0,0,0-.35-1.43Z"/>
      <path class="cls-2" d="M81.91,5v6.81A3.57,3.57,0,0,1,81,14.43a2.83,2.83,0,0,1-2.12.75,3,3,0,0,1-1.59-.36,4.61,4.61,0,0,1-.94-.84l1.44-1.62a2.49,2.49,0,0,0,.36.55.72.72,0,0,0,.57.23.74.74,0,0,0,.54-.21,1.71,1.71,0,0,0,.3-1.19V5Z"/>
      <path class="cls-2" d="M89.26,7.39a2.47,2.47,0,0,0-1.68-.72,1.26,1.26,0,0,0-1,.35.88.88,0,0,0-.25.63.68.68,0,0,0,.22.55,3.85,3.85,0,0,0,1.26.57l.75.29A4,4,0,0,1,90,9.82a2.52,2.52,0,0,1,.73,1.86,3.63,3.63,0,0,1-.88,2.48,3.89,3.89,0,0,1-2.84,1,4.3,4.3,0,0,1-2-.42,6.49,6.49,0,0,1-1.47-1.1L84.71,12a6,6,0,0,0,.94.77,2.28,2.28,0,0,0,1.25.36,1.58,1.58,0,0,0,1-.35,1,1,0,0,0,.36-.81.88.88,0,0,0-.34-.72,5,5,0,0,0-1.17-.55L86,10.42a3.34,3.34,0,0,1-1.39-.8A2.41,2.41,0,0,1,84,7.89a3.06,3.06,0,0,1,.87-2.25,3.21,3.21,0,0,1,2.47-.92,4.84,4.84,0,0,1,3,1Z"/>
      <path class="cls-2" d="M94.66,9.12,98.08,5h2.82L96.85,9.69,101.21,15h-3l-3.58-4.44V15H92.35V5h2.31Z"/>
      <path class="cls-2" d="M110.63,6.18A5.17,5.17,0,0,1,112.19,10a5.18,5.18,0,0,1-1.56,3.75,5.34,5.34,0,0,1-3.87,1.47,5.52,5.52,0,0,1-3.9-1.47A5.11,5.11,0,0,1,101.3,10a5.6,5.6,0,0,1,1.55-3.8,5.9,5.9,0,0,1,7.78,0Zm-6.07,1.53a3,3,0,0,0-.89,2.26,3,3,0,0,0,.92,2.25,2.9,2.9,0,0,0,2.14.82,3,3,0,0,0,2.22-.85,3,3,0,0,0,.87-2.23A3.14,3.14,0,0,0,109,7.71a3.2,3.2,0,0,0-2.2-.86A3.07,3.07,0,0,0,104.56,7.71Z"/>
      <path class="cls-2" d="M116.23,5V13h3.1V15h-5.41V5Z"/>
      <path class="cls-2" d="M126.29,6.9H123V8.83h3.18v1.95H123V13h3.34V15h-5.65V5h5.65Z"/>
      <path class="cls-2" d="M128.17,15V5h2l5.43,6.45V5h2.31V15h-2l-5.43-6.48V15Z"/>
    </g>
    <g class="cls-1">
      <path class="cls-2" d="M40.47,24.91a1.62,1.62,0,0,0-1.12-.48.83.83,0,0,0-.65.23.6.6,0,0,0-.17.42.47.47,0,0,0,.15.37,2.68,2.68,0,0,0,.84.38L40,26a2.67,2.67,0,0,1,.91.51,1.66,1.66,0,0,1,.49,1.24,2.39,2.39,0,0,1-.59,1.65,2.58,2.58,0,0,1-1.89.68,2.83,2.83,0,0,1-1.32-.28,4.24,4.24,0,0,1-1-.73l.8-1.1a4.08,4.08,0,0,0,.62.51,1.55,1.55,0,0,0,.84.24,1.06,1.06,0,0,0,.7-.23.69.69,0,0,0,.24-.54.59.59,0,0,0-.23-.48,3.26,3.26,0,0,0-.78-.37l-.55-.19a2.25,2.25,0,0,1-.93-.53,1.64,1.64,0,0,1-.4-1.16,2.05,2.05,0,0,1,.58-1.5,2.15,2.15,0,0,1,1.65-.61,3.22,3.22,0,0,1,2,.66Z"/>
      <path class="cls-2" d="M43,28.73a3.22,3.22,0,0,1-.7-2.05,3.71,3.71,0,0,1,1-2.57,3.53,3.53,0,0,1,2.61-1,3.6,3.6,0,0,1,2.09.58l.88-.88.83.8-.87.87a3.36,3.36,0,0,1,.69,2.09,3.46,3.46,0,0,1-1,2.53,3.58,3.58,0,0,1-2.58,1,3.71,3.71,0,0,1-2.1-.59l-.89.89-.83-.8Zm3.94-3.94a2.3,2.3,0,0,0-1-.24,2,2,0,0,0-1.46.57,2.06,2.06,0,0,0-.59,1.53,1.93,1.93,0,0,0,.23,1Zm-2,3.65a2.18,2.18,0,0,0,1,.24,2,2,0,0,0,1.48-.57A2.07,2.07,0,0,0,48,26.56a1.83,1.83,0,0,0-.23-.95Z"/>
      <path class="cls-2" d="M50.75,30V23.29h1.34l3.62,4.29V23.29h1.54V30H55.91l-3.62-4.32V30Z"/>
      <path class="cls-2" d="M60.82,23.29a3.5,3.5,0,0,1,2.63.91,3.48,3.48,0,0,1,0,4.75,3.59,3.59,0,0,1-2.63,1H58.71V23.29Zm-.57,5.36h.41a2.41,2.41,0,0,0,1.52-.45,2.08,2.08,0,0,0,.65-1.61,2,2,0,0,0-.55-1.44,2.2,2.2,0,0,0-1.62-.57h-.41Z"/>
      <path class="cls-2" d="M69.33,24.58H67.1v1.29h2.12v1.3H67.1v1.48h2.23V30H65.56V23.29h3.77Z"/>
      <path class="cls-2" d="M72.92,23.29a2.39,2.39,0,0,1,1.7.57,2,2,0,0,1,.58,1.49,1.82,1.82,0,0,1-.52,1.36,2.1,2.1,0,0,1-.93.51l2,2.73H73.92l-1.8-2.63V30H70.58V23.29Zm-.8,3h.35a1.27,1.27,0,0,0,.92-.29.9.9,0,0,0,.25-.65.81.81,0,0,0-.31-.68,1.5,1.5,0,0,0-.85-.21h-.36Z"/>
      <path class="cls-2" d="M78.69,23.29a2.51,2.51,0,0,1,1.7.5,1.72,1.72,0,0,1,.48,1.26,1.57,1.57,0,0,1-.22.85,1.22,1.22,0,0,1-.56.49,1.74,1.74,0,0,1,.92.45A1.63,1.63,0,0,1,81.44,28a1.82,1.82,0,0,1-.52,1.35,2.53,2.53,0,0,1-1.76.57H76.65V23.29ZM78.17,26h.25a1.43,1.43,0,0,0,.78-.19.71.71,0,0,0,.27-.59.68.68,0,0,0-.26-.56,1.28,1.28,0,0,0-.8-.17h-.24Zm0,2.76h.37a1.69,1.69,0,0,0,1.14-.27.74.74,0,0,0,.22-.56.72.72,0,0,0-.21-.54,1.73,1.73,0,0,0-1.1-.25h-.42Z"/>
      <path class="cls-2" d="M88.5,24.1a3.55,3.55,0,0,1,0,5,3.56,3.56,0,0,1-2.58,1,3.67,3.67,0,0,1-2.6-1,3.41,3.41,0,0,1-1-2.48,3.72,3.72,0,0,1,1-2.53,3.94,3.94,0,0,1,5.19,0Zm-4,1a2,2,0,0,0-.59,1.51,2,2,0,0,0,.61,1.5,2,2,0,0,0,1.43.55,2,2,0,0,0,1.48-.57A2,2,0,0,0,88,26.62a2.1,2.1,0,0,0-.58-1.5,2.14,2.14,0,0,0-1.47-.57A2,2,0,0,0,84.45,25.12Z"/>
      <path class="cls-2" d="M93,23.29a2.39,2.39,0,0,1,1.7.57,2,2,0,0,1,.58,1.49,1.82,1.82,0,0,1-.52,1.36,2.1,2.1,0,0,1-.93.51l2,2.73H94l-1.8-2.63V30H90.69V23.29Zm-.8,3h.35A1.27,1.27,0,0,0,93.5,26a.9.9,0,0,0,.25-.65.81.81,0,0,0-.31-.68,1.5,1.5,0,0,0-.85-.21h-.36Z"/>
      <path class="cls-2" d="M100,26.31h3.31v.07a4.33,4.33,0,0,1-1,2.81,3.06,3.06,0,0,1-2.38.91,3.14,3.14,0,0,1-2.44-.93,3.8,3.8,0,0,1,0-5.07,3.43,3.43,0,0,1,2.62-1,3.36,3.36,0,0,1,1.87.5A3.69,3.69,0,0,1,103,24.82l-1.39.75a2,2,0,0,0-.59-.72,1.67,1.67,0,0,0-1-.32,1.8,1.8,0,0,0-1.38.54A2.28,2.28,0,0,0,98,26.65a2.1,2.1,0,0,0,.56,1.53,1.75,1.75,0,0,0,1.35.52,1.71,1.71,0,0,0,1.16-.36,1.56,1.56,0,0,0,.48-.79H100Z"/>
    </g>
  </g>
</svg>
