<?xml version="1.0" encoding="utf-8"?>
<!-- Generator: Adobe Illustrator 24.0.3, SVG Export Plug-In . SVG Version: 6.00 Build 0)  -->
<svg version="1.1" id="Layer_1" xmlns="http://www.w3.org/2000/svg" xmlns:xlink="http://www.w3.org/1999/xlink" x="0px" y="0px"
	 viewBox="0 0 140 35" style="enable-background:new 0 0 140 35;" xml:space="preserve">
<style type="text/css">
	.st0{fill:#FFFFFF;}
</style>
<title>Artboard 3</title>
<g>
	<path class="st0" d="M4.4,5v10H2.1V5H4.4z"/>
	<path class="st0" d="M9.8,5c1.4-0.1,2.9,0.4,3.9,1.4c1,0.9,1.5,2.2,1.4,3.6c0.1,1.3-0.4,2.6-1.4,3.5c-1.1,1-2.5,1.6-4,1.5H6.7V5
		H9.8z M9,13h0.6c0.8,0,1.6-0.2,2.3-0.7c0.7-0.6,1-1.5,1-2.4c0-0.8-0.3-1.6-0.9-2.2c-0.7-0.6-1.5-0.9-2.4-0.8H9V13z"/>
	<path class="st0" d="M20.5,5c0.9-0.1,1.8,0.2,2.5,0.8c0.6,0.6,0.9,1.4,0.9,2.2c0,0.7-0.3,1.5-0.8,2c-0.4,0.4-0.9,0.6-1.4,0.8
		l3.1,4.2H22l-2.7-4v4H17V5H20.5z M19.3,9.5h0.5c0.5,0,1-0.1,1.4-0.4c0.3-0.3,0.4-0.6,0.4-1c0-0.4-0.2-0.8-0.5-1
		c-0.4-0.2-0.8-0.3-1.3-0.3h-0.5L19.3,9.5z"/>
	<path class="st0" d="M32.2,13h-3.8l-0.8,2h-2.4l4.1-10H35l0.7,2h-3.5L33,8.8h3.5l0.8,1.9h-3.5l0.9,2.2h3.5l0.7,2H33L32.2,13z
		 M31.6,11.2L30.3,8L29,11.2L31.6,11.2z"/>
	<path class="st0" d="M43.5,6.9v8h-2.3v-8H39V5h6.7v2L43.5,6.9z"/>
	<path class="st0" d="M51.7,7.4c-0.4-0.4-1-0.7-1.7-0.7c-0.4,0-0.7,0.1-1,0.3c-0.2,0.2-0.3,0.4-0.2,0.6c0,0.2,0.1,0.4,0.2,0.6
		c0.4,0.3,0.8,0.5,1.3,0.6L51,9.1c0.5,0.2,1,0.4,1.4,0.8c0.5,0.5,0.8,1.2,0.7,1.9c0,0.9-0.3,1.8-0.9,2.5c-0.8,0.7-1.8,1.1-2.8,1
		c-0.7,0-1.4-0.1-2-0.4c-0.5-0.3-1-0.7-1.5-1.1l1.2-1.6c0.3,0.3,0.6,0.5,0.9,0.8c0.4,0.2,0.8,0.4,1.3,0.4c0.4,0,0.8-0.1,1-0.4
		c0.2-0.2,0.4-0.5,0.4-0.8c0-0.3-0.1-0.5-0.3-0.7c-0.4-0.2-0.8-0.4-1.2-0.6l-0.8-0.3c-0.5-0.1-1-0.4-1.4-0.8
		c-0.4-0.5-0.6-1.1-0.6-1.7c0-0.8,0.3-1.7,0.9-2.2c0.7-0.6,1.6-1,2.5-0.9c1.1,0,2.1,0.3,3,1L51.7,7.4z"/>
	<path class="st0" d="M57.1,8.8h4V5h2.3v10H61v-4.3h-4V15h-2.2V5h2.3V8.8z"/>
	<path class="st0" d="M66.2,13.1c-0.7-0.9-1-2-1-3.1c0-1.4,0.6-2.8,1.6-3.8c1-1,2.5-1.5,3.9-1.5c1.1,0,2.2,0.3,3.1,0.9l1.3-1.3
		l1.2,1.2L75,6.8c0.7,0.9,1,2,1,3.1c0,1.4-0.5,2.8-1.6,3.8c-1,1-2.4,1.5-3.9,1.5c-1.1,0-2.2-0.3-3.2-0.9l-1.3,1.3l-1.2-1.2
		L66.2,13.1z M72.1,7.2c-0.5-0.2-1-0.4-1.5-0.4c-0.8,0-1.6,0.3-2.2,0.9c-0.6,0.6-0.9,1.4-0.9,2.3c0,0.5,0.1,1,0.3,1.5L72.1,7.2z
		 M69.1,12.7c0.5,0.2,1,0.3,1.5,0.3c0.8,0,1.6-0.3,2.2-0.9c0.6-0.6,0.9-1.5,0.9-2.3c0-0.5-0.1-1-0.3-1.4L69.1,12.7z"/>
	<path class="st0" d="M81.9,5v6.8c0.1,1-0.3,1.9-0.9,2.6c-0.6,0.5-1.3,0.8-2.1,0.8c-0.6,0-1.1-0.1-1.6-0.4c-0.4-0.2-0.7-0.5-0.9-0.8
		l1.4-1.6c0.1,0.2,0.2,0.4,0.4,0.6c0.1,0.2,0.4,0.2,0.6,0.2c0.2,0,0.4-0.1,0.5-0.2c0.2-0.3,0.4-0.8,0.3-1.2V5H81.9z"/>
	<path class="st0" d="M89.3,7.4c-0.4-0.4-1-0.7-1.7-0.7c-0.4,0-0.7,0.1-1,0.3c-0.2,0.2-0.3,0.4-0.2,0.6c0,0.2,0.1,0.4,0.2,0.5
		c0.4,0.3,0.8,0.5,1.3,0.6l0.8,0.3c0.5,0.2,1,0.4,1.4,0.8c0.5,0.5,0.8,1.2,0.7,1.9c0,0.9-0.3,1.8-0.9,2.5c-0.8,0.7-1.8,1.1-2.8,1
		c-0.7,0-1.4-0.1-2-0.4c-0.5-0.3-1-0.7-1.5-1.1l1.2-1.6c0.3,0.3,0.6,0.5,0.9,0.8c0.4,0.2,0.8,0.4,1.2,0.4c0.4,0,0.7-0.1,1-0.4
		c0.2-0.2,0.4-0.5,0.4-0.8c0-0.3-0.1-0.5-0.3-0.7c-0.4-0.2-0.8-0.4-1.2-0.6L86,10.4c-0.5-0.1-1-0.4-1.4-0.8C84.2,9.1,84,8.5,84,7.9
		c0-0.8,0.3-1.7,0.9-2.2c0.7-0.6,1.6-1,2.5-0.9c1.1,0,2.1,0.3,3,1L89.3,7.4z"/>
	<path class="st0" d="M94.7,9.1L98.1,5h2.8l-4.1,4.7l4.4,5.3h-3l-3.6-4.4V15h-2.3V5h2.3L94.7,9.1z"/>
	<path class="st0" d="M110.6,6.2c1,1,1.6,2.4,1.6,3.8c0,1.4-0.6,2.8-1.6,3.8c-1,1-2.4,1.5-3.9,1.5c-1.4,0-2.8-0.5-3.9-1.5
		c-1-1-1.6-2.3-1.6-3.8c0-1.4,0.6-2.8,1.6-3.8C105.1,4.2,108.4,4.2,110.6,6.2L110.6,6.2z M104.6,7.7c-0.6,0.6-0.9,1.4-0.9,2.3
		c0,0.8,0.3,1.7,0.9,2.2c0.6,0.6,1.3,0.9,2.1,0.8c0.8,0,1.6-0.3,2.2-0.9c0.6-0.6,0.9-1.4,0.9-2.2c0-0.8-0.3-1.6-0.8-2.2
		c-0.6-0.6-1.4-0.9-2.2-0.9C106,6.8,105.2,7.1,104.6,7.7z"/>
	<path class="st0" d="M116.2,5v8h3.1v2h-5.4V5H116.2z"/>
	<path class="st0" d="M126.3,6.9H123v1.9h3.2v1.9H123V13h3.3v2h-5.7V5h5.7L126.3,6.9z"/>
	<path class="st0" d="M128.2,15V5h2l5.4,6.4V5h2.3v10h-2l-5.4-6.5V15H128.2z"/>
</g>
<g>
	<path class="st0" d="M40.5,24.9c-0.3-0.3-0.7-0.5-1.1-0.5c-0.2,0-0.5,0.1-0.7,0.2c-0.1,0.1-0.2,0.3-0.2,0.4c0,0.1,0,0.3,0.2,0.4
		c0.3,0.2,0.5,0.3,0.8,0.4L40,26c0.3,0.1,0.6,0.3,0.9,0.5c0.3,0.3,0.5,0.8,0.5,1.2c0,0.6-0.2,1.2-0.6,1.6c-0.5,0.5-1.2,0.7-1.9,0.7
		c-0.5,0-0.9-0.1-1.3-0.3c-0.4-0.2-0.7-0.4-1-0.7l0.8-1.1c0.2,0.2,0.4,0.4,0.6,0.5c0.3,0.2,0.5,0.2,0.8,0.2c0.3,0,0.5-0.1,0.7-0.2
		c0.2-0.1,0.2-0.3,0.2-0.5c0-0.2-0.1-0.4-0.2-0.5c-0.2-0.2-0.5-0.3-0.8-0.4l-0.5-0.2c-0.3-0.1-0.7-0.3-0.9-0.5
		c-0.3-0.3-0.4-0.7-0.4-1.2c0-0.6,0.2-1.1,0.6-1.5c0.4-0.4,1-0.7,1.7-0.6c0.7,0,1.4,0.2,2,0.7L40.5,24.9z"/>
	<path class="st0" d="M43,28.7c-0.5-0.6-0.7-1.3-0.7-2c0-1,0.3-1.9,1-2.6c0.7-0.7,1.6-1,2.6-1c0.7,0,1.5,0.2,2.1,0.6l0.9-0.9
		l0.8,0.8l-0.9,0.9c0.5,0.6,0.7,1.3,0.7,2.1c0,0.9-0.3,1.9-1,2.5c-0.7,0.7-1.6,1-2.6,1c-0.7,0-1.5-0.2-2.1-0.6L43,30.4l-0.8-0.8
		L43,28.7z M46.9,24.8c-0.3-0.2-0.7-0.2-1-0.2c-0.5,0-1.1,0.2-1.5,0.6c-0.4,0.4-0.6,1-0.6,1.5c0,0.3,0.1,0.7,0.2,1L46.9,24.8z
		 M44.9,28.4c0.3,0.2,0.7,0.2,1,0.2c0.6,0,1.1-0.2,1.5-0.6c0.4-0.4,0.6-1,0.6-1.5c0-0.3-0.1-0.7-0.2-1L44.9,28.4z"/>
	<path class="st0" d="M50.8,30v-6.7h1.3l3.6,4.3v-4.3h1.5V30h-1.3l-3.6-4.3V30H50.8z"/>
	<path class="st0" d="M60.8,23.3c1-0.1,1.9,0.3,2.6,0.9c1.2,1.3,1.2,3.4,0,4.8c-0.7,0.7-1.7,1-2.6,1h-2.1v-6.7H60.8z M60.2,28.7h0.4
		c0.5,0,1.1-0.1,1.5-0.5c0.4-0.4,0.7-1,0.7-1.6c0-0.5-0.2-1.1-0.5-1.4c-0.4-0.4-1-0.6-1.6-0.6h-0.4L60.2,28.7z"/>
	<path class="st0" d="M69.3,24.6h-2.2v1.3h2.1v1.3h-2.1v1.5h2.2V30h-3.8v-6.7h3.8L69.3,24.6z"/>
	<path class="st0" d="M72.9,23.3c0.6,0,1.2,0.2,1.7,0.6c0.4,0.4,0.6,0.9,0.6,1.5c0,0.5-0.2,1-0.5,1.4c-0.3,0.2-0.6,0.4-0.9,0.5
		l2,2.7h-1.8l-1.8-2.6V30h-1.5v-6.7H72.9z M72.1,26.3h0.3c0.3,0,0.7-0.1,0.9-0.3c0.2-0.2,0.3-0.4,0.2-0.6c0-0.3-0.1-0.5-0.3-0.7
		c-0.3-0.2-0.6-0.2-0.8-0.2h-0.4V26.3z"/>
	<path class="st0" d="M78.7,23.3c0.6,0,1.2,0.1,1.7,0.5c0.3,0.3,0.5,0.8,0.5,1.3c0,0.3-0.1,0.6-0.2,0.9c-0.1,0.2-0.3,0.4-0.6,0.5
		c0.3,0.1,0.7,0.2,0.9,0.5c0.3,0.3,0.4,0.7,0.4,1.2c0,0.5-0.2,1-0.5,1.4c-0.5,0.4-1.1,0.6-1.8,0.6h-2.5v-6.6H78.7z M78.2,26h0.2
		c0.3,0,0.5-0.1,0.8-0.2c0.2-0.1,0.3-0.4,0.3-0.6c0-0.2-0.1-0.4-0.3-0.6c-0.2-0.1-0.5-0.2-0.8-0.2h-0.2L78.2,26z M78.2,28.8h0.4
		c0.4,0,0.8,0,1.1-0.3c0.1-0.1,0.2-0.4,0.2-0.6c0-0.2-0.1-0.4-0.2-0.5c-0.3-0.2-0.7-0.3-1.1-0.2h-0.4L78.2,28.8z"/>
	<path class="st0" d="M88.5,24.1c1.4,1.4,1.4,3.6,0,5c-0.7,0.7-1.6,1-2.6,1c-1,0-1.9-0.3-2.6-1c-0.7-0.7-1-1.6-1-2.5
		c0-0.9,0.4-1.8,1-2.5C84.8,22.8,87,22.8,88.5,24.1L88.5,24.1z M84.5,25.1c-0.4,0.4-0.6,0.9-0.6,1.5c0,0.6,0.2,1.1,0.6,1.5
		c0.4,0.4,0.9,0.6,1.4,0.5c0.6,0,1.1-0.2,1.5-0.6c0.4-0.4,0.6-0.9,0.6-1.5c0-0.6-0.2-1.1-0.6-1.5c-0.4-0.4-0.9-0.6-1.5-0.6
		C85.4,24.5,84.8,24.7,84.5,25.1L84.5,25.1z"/>
	<path class="st0" d="M93,23.3c0.6,0,1.2,0.2,1.7,0.6c0.4,0.4,0.6,0.9,0.6,1.5c0,0.5-0.2,1-0.5,1.4c-0.3,0.2-0.6,0.4-0.9,0.5l2,2.7
		H94l-1.8-2.6V30h-1.5v-6.7H93z M92.2,26.3h0.3c0.3,0,0.7-0.1,1-0.3c0.2-0.2,0.3-0.4,0.2-0.6c0-0.3-0.1-0.5-0.3-0.7
		c-0.3-0.2-0.6-0.2-0.8-0.2h-0.4L92.2,26.3z"/>
	<path class="st0" d="M100,26.3h3.3v0.1c0,1-0.3,2-1,2.8c-0.6,0.6-1.5,1-2.4,0.9c-0.9,0.1-1.8-0.3-2.4-0.9c-1.3-1.4-1.3-3.6,0-5.1
		c0.7-0.7,1.6-1.1,2.6-1c0.7,0,1.3,0.2,1.9,0.5c0.4,0.3,0.8,0.7,1,1.2l-1.4,0.8c-0.1-0.3-0.3-0.5-0.6-0.7c-0.3-0.2-0.6-0.3-1-0.3
		c-0.5,0-1,0.2-1.4,0.5c-0.4,0.4-0.6,1-0.6,1.6c0,0.6,0.2,1.1,0.6,1.5c0.4,0.4,0.8,0.5,1.3,0.5c0.4,0,0.8-0.1,1.2-0.4
		c0.2-0.2,0.4-0.5,0.5-0.8H100V26.3z"/>
</g>
</svg>
