<?xml version="1.0" encoding="utf-8"?>
<!-- Generator: Adobe Illustrator 24.0.3, SVG Export Plug-In . SVG Version: 6.00 Build 0)  -->
<svg version="1.1" id="Layer_1" xmlns="http://www.w3.org/2000/svg" xmlns:xlink="http://www.w3.org/1999/xlink" x="0px" y="0px"
	 viewBox="0 0 1069.3 416.2" style="enable-background:new 0 0 1069.3 416.2;" xml:space="preserve">
<style type="text/css">
	.st0{enable-background:new    ;}
	.st1{fill:#FFFFFF;}
	.st2{fill:#9ED1E0;}
	.st3{fill:#74A951;}
</style>
<title>Artboard 4</title>
<g>
	<g id="IDRÆTSHØJSKOLEN">
		<g class="st0">
			<path class="st1" d="M27.5,245.6V321H7.9v-75.4H27.5z"/>
			<path class="st1" d="M43.3,245.6h29c5.1,0,10,1,14.5,3.1c4.5,2.1,8.4,4.8,11.8,8.2c3.4,3.4,6,7.4,8,12c1.9,4.6,2.9,9.3,2.9,14.3
				c0,4.9-1,9.7-2.9,14.2c-1.9,4.6-4.5,8.6-7.9,12c-3.4,3.5-7.3,6.2-11.8,8.3s-9.4,3.1-14.6,3.1h-29V245.6z M62.9,304.4h4.5
				c3.4,0,6.4-0.5,9.1-1.6c2.7-1.1,4.9-2.5,6.8-4.4c1.8-1.9,3.2-4.1,4.2-6.7c1-2.6,1.5-5.4,1.5-8.5c0-3-0.5-5.8-1.5-8.4
				c-1-2.6-2.4-4.8-4.2-6.7c-1.8-1.9-4.1-3.3-6.8-4.4c-2.7-1.1-5.7-1.6-9-1.6h-4.5V304.4z"/>
			<path class="st1" d="M184.6,321h-24.4l-18.7-29v29h-19.6v-75.4h30.5c4.2,0,7.9,0.6,11,1.9c3.1,1.2,5.7,2.9,7.8,5
				c2,2.1,3.6,4.6,4.6,7.4c1,2.8,1.5,5.8,1.5,9c0,5.7-1.4,10.4-4.1,13.9c-2.8,3.6-6.9,6-12.2,7.2L184.6,321z M141.5,279.3h3.7
				c3.9,0,6.8-0.8,8.9-2.4c2.1-1.6,3.1-3.9,3.1-6.9s-1-5.3-3.1-6.9c-2.1-1.6-5-2.4-8.9-2.4h-3.7V279.3z"/>
			<path class="st1" d="M238.2,307.7H211l-4.7,13.3h-20.7l29.1-75.4h46.1l6.1,16.6h-24.8l4.7,12.6h24.7l6.3,16.6h-24.9l4.9,13h24.8
				l6,16.6h-45.4L238.2,307.7z M233,292.9l-8.2-22.4l-8.4,22.4H233z"/>
		</g>
		<g class="st0">
			<path class="st1" d="M325.9,262.2V321h-19.6v-58.8h-16.1v-16.6H342v16.6H325.9z"/>
		</g>
		<g class="st0">
			<path class="st1" d="M392.2,264.9c-2.1-1.7-4.3-3-6.4-3.9c-2.1-0.8-4.2-1.2-6.2-1.2c-2.5,0-4.6,0.6-6.2,1.8
				c-1.6,1.2-2.4,2.8-2.4,4.7c0,1.3,0.4,2.4,1.2,3.3c0.8,0.9,1.9,1.6,3.2,2.2c1.3,0.6,2.8,1.2,4.4,1.7c1.6,0.5,3.2,1,4.9,1.5
				c6.4,2.1,11.1,5,14,8.5c3,3.6,4.5,8.2,4.5,14c0,3.9-0.7,7.4-2,10.5c-1.3,3.1-3.2,5.8-5.7,8c-2.5,2.2-5.6,4-9.2,5.2
				c-3.6,1.2-7.8,1.8-12.4,1.8c-9.5,0-18.4-2.8-26.5-8.5l8.4-15.8c2.9,2.6,5.8,4.5,8.7,5.8c2.9,1.3,5.7,1.9,8.5,1.9
				c3.2,0,5.6-0.7,7.1-2.2c1.6-1.5,2.4-3.1,2.4-5c0-1.1-0.2-2.1-0.6-3c-0.4-0.8-1.1-1.6-2-2.3c-0.9-0.7-2.1-1.3-3.6-2
				c-1.5-0.6-3.3-1.3-5.5-2c-2.5-0.8-5-1.7-7.4-2.6c-2.4-1-4.6-2.2-6.5-3.9c-1.9-1.6-3.4-3.6-4.6-6c-1.2-2.4-1.8-5.5-1.8-9.2
				c0-3.7,0.6-7.1,1.9-10.1c1.2-3,3-5.6,5.2-7.8c2.2-2.2,5-3.8,8.2-5c3.2-1.2,6.9-1.8,10.9-1.8c3.7,0,7.6,0.5,11.7,1.5
				c4.1,1,8,2.5,11.7,4.5L392.2,264.9z"/>
			<path class="st1" d="M435,274.7h28.3v-29.1h19.6V321h-19.6v-31.1H435V321h-19.6v-75.4H435V274.7z"/>
			<path class="st1" d="M495.3,283.3c0-5.6,1-10.8,3.1-15.6c2.1-4.8,4.9-9.1,8.6-12.7c3.7-3.6,8-6.4,13.1-8.5c5.1-2,10.7-3,16.9-3
				c5,0,9.6,0.7,13.9,2c4.3,1.4,8.1,3.3,11.6,5.8l9.8-9.2l7.8,8.2l-9.4,8.9c2.5,3.3,4.5,7,6,11.1c1.4,4.1,2.1,8.4,2.1,13
				c0,5.6-1,10.8-3.1,15.7c-2.1,4.8-5,9-8.7,12.6c-3.7,3.6-8.1,6.4-13.2,8.5c-5.1,2-10.7,3-16.8,3c-5,0-9.7-0.7-14-2
				c-4.3-1.4-8.2-3.3-11.7-5.8l-9.7,9.2l-7.8-8.1l9.4-8.9c-2.5-3.4-4.5-7.1-5.9-11.2C496,292.2,495.3,287.9,495.3,283.3z
				 M515.8,283.3c0,1.9,0.2,3.6,0.6,5.2c0.4,1.6,1,3.2,1.8,4.7l29.5-27.9c-3.3-1.9-6.9-2.8-10.7-2.8c-2.9,0-5.6,0.5-8.2,1.5
				c-2.6,1-4.8,2.5-6.8,4.4c-1.9,1.9-3.5,4.1-4.6,6.6C516.4,277.5,515.8,280.3,515.8,283.3z M558.3,283.3c0-1.9-0.2-3.6-0.7-5.3
				c-0.5-1.7-1.1-3.2-1.9-4.7l-29.6,27.9c3.3,1.9,6.9,2.9,10.9,2.9c2.9,0,5.6-0.5,8.2-1.5c2.6-1,4.8-2.5,6.8-4.3
				c2-1.9,3.5-4.1,4.6-6.6C557.7,289,558.3,286.3,558.3,283.3z"/>
			<path class="st1" d="M628.3,245.6v52.3c0,2.2-0.1,4.2-0.4,6.1c-0.2,1.9-0.6,3.5-1.1,4.8c-0.9,2.1-2,4.1-3.5,5.9
				c-1.5,1.8-3.2,3.3-5.2,4.5c-2,1.2-4.2,2.2-6.7,2.9c-2.4,0.7-5,1-7.7,1c-8.1,0-14.6-3.7-19.7-11.1l12.8-13.1
				c0.3,2.3,1.1,4.1,2.2,5.4c1.1,1.3,2.5,2,4.2,2c3.7,0,5.5-2.9,5.5-8.7v-52H628.3z"/>
			<path class="st1" d="M685.6,264.9c-2.1-1.7-4.3-3-6.4-3.9c-2.1-0.8-4.2-1.2-6.2-1.2c-2.5,0-4.6,0.6-6.2,1.8
				c-1.6,1.2-2.4,2.8-2.4,4.7c0,1.3,0.4,2.4,1.2,3.3c0.8,0.9,1.8,1.6,3.2,2.2c1.3,0.6,2.8,1.2,4.4,1.7c1.6,0.5,3.2,1,4.9,1.5
				c6.4,2.1,11.1,5,14,8.5c3,3.6,4.5,8.2,4.5,14c0,3.9-0.7,7.4-2,10.5c-1.3,3.1-3.2,5.8-5.7,8c-2.5,2.2-5.6,4-9.2,5.2
				c-3.6,1.2-7.8,1.8-12.3,1.8c-9.5,0-18.4-2.8-26.5-8.5l8.4-15.8c2.9,2.6,5.8,4.5,8.7,5.8c2.9,1.3,5.7,1.9,8.5,1.9
				c3.2,0,5.6-0.7,7.2-2.2c1.6-1.5,2.3-3.1,2.3-5c0-1.1-0.2-2.1-0.6-3c-0.4-0.8-1.1-1.6-2-2.3c-0.9-0.7-2.2-1.3-3.7-2
				c-1.5-0.6-3.3-1.3-5.5-2c-2.5-0.8-5-1.7-7.4-2.6c-2.4-1-4.6-2.2-6.5-3.9c-1.9-1.6-3.4-3.6-4.6-6c-1.2-2.4-1.8-5.5-1.8-9.2
				c0-3.7,0.6-7.1,1.9-10.1c1.2-3,3-5.6,5.2-7.8c2.2-2.2,5-3.8,8.2-5c3.2-1.2,6.9-1.8,10.9-1.8c3.7,0,7.6,0.5,11.7,1.5
				c4.1,1,8,2.5,11.7,4.5L685.6,264.9z"/>
		</g>
		<g class="st0">
			<path class="st1" d="M728.4,276.7l23.9-31.1h24.2l-29.9,35.7l32.7,39.7h-25.4l-25.5-32.7V321h-19.6v-75.4h19.6V276.7z"/>
		</g>
		<g class="st0">
			<path class="st1" d="M780,283.3c0-5.6,1-10.8,3.1-15.6c2.1-4.8,4.9-9.1,8.6-12.7c3.7-3.6,8-6.4,13.1-8.5c5.1-2,10.7-3,16.9-3
				c6.1,0,11.7,1,16.8,3c5.1,2,9.5,4.9,13.2,8.5s6.6,7.8,8.6,12.7c2.1,4.8,3.1,10,3.1,15.6c0,5.6-1,10.8-3.1,15.7
				c-2.1,4.8-4.9,9-8.6,12.6c-3.7,3.6-8.1,6.4-13.2,8.5c-5.1,2-10.7,3-16.8,3c-6.1,0-11.8-1-16.9-3c-5.1-2-9.5-4.8-13.1-8.5
				c-3.7-3.6-6.5-7.8-8.6-12.6C781,294.1,780,288.9,780,283.3z M800.5,283.3c0,3,0.6,5.8,1.7,8.3c1.1,2.5,2.7,4.7,4.6,6.6
				c1.9,1.9,4.2,3.3,6.8,4.3c2.6,1,5.3,1.5,8.2,1.5c2.9,0,5.6-0.5,8.1-1.5c2.6-1,4.8-2.5,6.8-4.3c2-1.9,3.5-4.1,4.7-6.6
				c1.1-2.5,1.7-5.3,1.7-8.3s-0.6-5.8-1.7-8.3c-1.1-2.5-2.7-4.7-4.7-6.6c-2-1.9-4.2-3.3-6.8-4.4c-2.6-1-5.3-1.5-8.1-1.5
				c-2.9,0-5.6,0.5-8.2,1.5c-2.6,1-4.8,2.5-6.8,4.4c-1.9,1.9-3.5,4.1-4.6,6.6C801.1,277.5,800.5,280.3,800.5,283.3z"/>
			<path class="st1" d="M895.5,245.6v58.8H919V321h-43.1v-75.4H895.5z"/>
			<path class="st1" d="M972,262.2h-23.3v12.6h22v16.6h-22v13H972V321h-42.9v-75.4H972V262.2z"/>
			<path class="st1" d="M986.1,321v-75.4h19.6l36.2,46.1v-46.1h19.5V321h-19.5l-36.2-46.1V321H986.1z"/>
		</g>
	</g>
	<g id="SØNDERBORG">
		<g class="st0">
			<path class="st1" d="M367.6,370.9c-1.1-0.9-2.1-1.5-3.2-1.9c-1.1-0.4-2.1-0.6-3.1-0.6c-1.3,0-2.3,0.3-3.1,0.9
				c-0.8,0.6-1.2,1.4-1.2,2.4c0,0.7,0.2,1.2,0.6,1.6c0.4,0.4,0.9,0.8,1.6,1.1c0.6,0.3,1.4,0.6,2.2,0.8c0.8,0.2,1.6,0.5,2.4,0.8
				c3.2,1.1,5.5,2.5,7,4.3c1.5,1.8,2.2,4.1,2.2,7c0,1.9-0.3,3.7-1,5.2c-0.6,1.6-1.6,2.9-2.9,4s-2.8,2-4.6,2.6
				c-1.8,0.6-3.9,0.9-6.2,0.9c-4.8,0-9.2-1.4-13.2-4.2l4.2-7.9c1.5,1.3,2.9,2.3,4.3,2.9c1.4,0.6,2.9,1,4.2,1c1.6,0,2.8-0.4,3.6-1.1
				c0.8-0.7,1.2-1.6,1.2-2.5c0-0.6-0.1-1.1-0.3-1.5c-0.2-0.4-0.5-0.8-1-1.1c-0.5-0.4-1.1-0.7-1.8-1s-1.7-0.6-2.7-1
				c-1.3-0.4-2.5-0.8-3.7-1.3c-1.2-0.5-2.3-1.1-3.2-1.9c-1-0.8-1.7-1.8-2.3-3c-0.6-1.2-0.9-2.8-0.9-4.6s0.3-3.6,0.9-5.1
				c0.6-1.5,1.5-2.8,2.6-3.9c1.1-1.1,2.5-1.9,4.1-2.5c1.6-0.6,3.4-0.9,5.4-0.9c1.9,0,3.8,0.3,5.9,0.8c2,0.5,4,1.3,5.8,2.3
				L367.6,370.9z"/>
			<path class="st1" d="M377.5,380.1c0-2.8,0.5-5.4,1.5-7.8s2.5-4.5,4.3-6.3c1.8-1.8,4-3.2,6.6-4.2c2.6-1,5.4-1.5,8.4-1.5
				c2.5,0,4.8,0.3,6.9,1c2.1,0.7,4.1,1.6,5.8,2.9l4.9-4.6l3.9,4.1l-4.7,4.4c1.3,1.7,2.3,3.5,3,5.6s1.1,4.2,1.1,6.5
				c0,2.8-0.5,5.4-1.5,7.8c-1,2.4-2.5,4.5-4.3,6.3s-4.1,3.2-6.6,4.2c-2.6,1-5.4,1.5-8.4,1.5c-2.5,0-4.8-0.3-7-1
				c-2.2-0.7-4.1-1.7-5.9-2.9l-4.9,4.6l-3.9-4l4.7-4.5c-1.3-1.7-2.2-3.6-2.9-5.6C377.9,384.6,377.5,382.4,377.5,380.1z M387.8,380.1
				c0,0.9,0.1,1.8,0.3,2.6c0.2,0.8,0.5,1.6,0.9,2.3l14.8-13.9c-1.7-0.9-3.5-1.4-5.4-1.4c-1.4,0-2.8,0.3-4.1,0.8
				c-1.3,0.5-2.4,1.2-3.4,2.2c-1,0.9-1.7,2-2.3,3.3C388.1,377.2,387.8,378.6,387.8,380.1z M409,380.1c0-0.9-0.1-1.8-0.4-2.7
				c-0.2-0.8-0.5-1.6-0.9-2.3l-14.8,13.9c1.6,1,3.5,1.5,5.5,1.5c1.4,0,2.8-0.3,4.1-0.8s2.4-1.2,3.4-2.2c1-0.9,1.8-2,2.3-3.3
				C408.8,383,409,381.6,409,380.1z"/>
			<path class="st1" d="M425.5,399v-37.7h9.8l18.1,23v-23h9.8V399h-9.8l-18.1-23v23H425.5z"/>
			<path class="st1" d="M471,361.3h14.5c2.6,0,5,0.5,7.2,1.5c2.2,1,4.2,2.4,5.9,4.1c1.7,1.7,3,3.7,4,6c1,2.3,1.5,4.7,1.5,7.2
				c0,2.5-0.5,4.8-1.4,7.1c-1,2.3-2.3,4.3-4,6c-1.7,1.7-3.6,3.1-5.9,4.2s-4.7,1.5-7.3,1.5H471V361.3z M480.8,390.7h2.2
				c1.7,0,3.2-0.3,4.5-0.8c1.3-0.5,2.5-1.3,3.4-2.2c0.9-0.9,1.6-2,2.1-3.3c0.5-1.3,0.7-2.7,0.7-4.2c0-1.5-0.2-2.9-0.8-4.2
				s-1.2-2.4-2.1-3.4c-0.9-0.9-2-1.7-3.4-2.2c-1.3-0.5-2.8-0.8-4.5-0.8h-2.2V390.7z"/>
			<path class="st1" d="M531.8,369.6h-11.6v6.3h11v8.3h-11v6.5h11.6v8.3h-21.4v-37.7h21.4V369.6z"/>
			<path class="st1" d="M570.2,399H558l-9.3-14.5V399h-9.8v-37.7h15.2c2.1,0,3.9,0.3,5.5,0.9c1.6,0.6,2.9,1.5,3.9,2.5
				c1,1.1,1.8,2.3,2.3,3.7c0.5,1.4,0.8,2.9,0.8,4.5c0,2.9-0.7,5.2-2.1,7c-1.4,1.8-3.4,3-6.1,3.6L570.2,399z M548.6,378.1h1.8
				c1.9,0,3.4-0.4,4.5-1.2s1.5-2,1.5-3.5s-0.5-2.7-1.5-3.5s-2.5-1.2-4.5-1.2h-1.8V378.1z"/>
		</g>
		<g class="st0">
			<path class="st1" d="M574.3,361.3h14.6c3.5,0,6.1,0.8,7.9,2.5c1.8,1.7,2.7,4.1,2.7,7.2c0,1.9-0.3,3.5-1,4.7
				c-0.7,1.2-1.7,2.3-3.1,3.2c1.4,0.3,2.6,0.7,3.6,1.2c1,0.5,1.8,1.2,2.4,2c0.6,0.8,1.1,1.7,1.3,2.7s0.4,2.1,0.4,3.2
				c0,1.8-0.3,3.3-0.9,4.7c-0.6,1.4-1.5,2.5-2.6,3.5c-1.1,0.9-2.5,1.6-4.1,2.1c-1.6,0.5-3.4,0.7-5.4,0.7h-15.8V361.3z M584.1,376.1
				h1.8c3.1,0,4.6-1.2,4.6-3.6c0-2.4-1.5-3.7-4.6-3.7h-1.8V376.1z M584.1,391.4h2.2c2.5,0,4.2-0.3,5.3-1c1.1-0.6,1.6-1.7,1.6-3
				c0-1.4-0.5-2.4-1.6-3.1c-1.1-0.6-2.8-0.9-5.3-0.9h-2.2V391.4z"/>
		</g>
		<g class="st0">
			<path class="st1" d="M606.9,380.1c0-2.8,0.5-5.4,1.5-7.8s2.5-4.5,4.3-6.3s4-3.2,6.6-4.2s5.4-1.5,8.4-1.5c3,0,5.8,0.5,8.4,1.5
				c2.6,1,4.8,2.4,6.6,4.2c1.8,1.8,3.3,3.9,4.3,6.3c1,2.4,1.5,5,1.5,7.8c0,2.8-0.5,5.4-1.5,7.8c-1,2.4-2.5,4.5-4.3,6.3
				c-1.9,1.8-4.1,3.2-6.6,4.2c-2.6,1-5.4,1.5-8.4,1.5c-3.1,0-5.9-0.5-8.4-1.5c-2.5-1-4.7-2.4-6.6-4.2s-3.3-3.9-4.3-6.3
				C607.4,385.5,606.9,382.9,606.9,380.1z M617.2,380.1c0,1.5,0.3,2.9,0.8,4.1c0.6,1.3,1.3,2.4,2.3,3.3c1,0.9,2.1,1.7,3.4,2.2
				s2.6,0.8,4.1,0.8c1.4,0,2.8-0.3,4.1-0.8s2.4-1.2,3.4-2.2c1-0.9,1.8-2,2.3-3.3c0.6-1.3,0.9-2.6,0.9-4.1s-0.3-2.9-0.9-4.2
				c-0.6-1.3-1.3-2.4-2.3-3.3c-1-0.9-2.1-1.7-3.4-2.2s-2.6-0.8-4.1-0.8c-1.4,0-2.8,0.3-4.1,0.8s-2.4,1.2-3.4,2.2
				c-1,0.9-1.7,2-2.3,3.3C617.4,377.2,617.2,378.6,617.2,380.1z"/>
		</g>
		<g class="st0">
			<path class="st1" d="M686.2,399H674l-9.3-14.5V399h-9.8v-37.7h15.2c2.1,0,3.9,0.3,5.5,0.9c1.6,0.6,2.9,1.5,3.9,2.5
				c1,1.1,1.8,2.3,2.3,3.7c0.5,1.4,0.8,2.9,0.8,4.5c0,2.9-0.7,5.2-2.1,7c-1.4,1.8-3.4,3-6.1,3.6L686.2,399z M664.7,378.1h1.8
				c1.9,0,3.4-0.4,4.5-1.2s1.5-2,1.5-3.5s-0.5-2.7-1.5-3.5s-2.5-1.2-4.5-1.2h-1.8V378.1z"/>
		</g>
		<g class="st0">
			<path class="st1" d="M708.1,377.9h19.5c0,2-0.1,3.8-0.2,5.4c-0.2,1.6-0.5,3.2-1,4.6c-0.7,2-1.6,3.7-2.8,5.2
				c-1.2,1.5-2.6,2.8-4.2,3.8c-1.6,1-3.4,1.8-5.3,2.3c-1.9,0.5-4,0.8-6.1,0.8c-2.9,0-5.6-0.5-8-1.5c-2.4-1-4.5-2.3-6.2-4.1
				s-3.1-3.9-4-6.3c-1-2.4-1.5-5.2-1.5-8.1c0-2.9,0.5-5.6,1.4-8.1c1-2.5,2.3-4.5,4.1-6.3c1.8-1.7,3.9-3.1,6.3-4s5.2-1.5,8.2-1.5
				c3.9,0,7.4,0.8,10.4,2.5c3,1.7,5.3,4.3,7,7.9l-9.3,3.8c-0.9-2.1-2-3.5-3.4-4.5c-1.4-0.9-3-1.3-4.7-1.3c-1.5,0-2.8,0.3-4,0.8
				c-1.2,0.5-2.2,1.3-3.1,2.3c-0.9,1-1.5,2.2-2,3.7c-0.5,1.4-0.7,3-0.7,4.8c0,1.6,0.2,3.1,0.6,4.4c0.4,1.4,1,2.6,1.9,3.6
				s1.9,1.8,3.1,2.3c1.2,0.6,2.7,0.8,4.3,0.8c1,0,1.9-0.1,2.8-0.3c0.9-0.2,1.7-0.6,2.4-1c0.7-0.5,1.3-1.1,1.8-1.9
				c0.5-0.8,0.8-1.7,1-2.8h-8.1V377.9z"/>
		</g>
	</g>
	<g id="Path_1">
		<path class="st2" d="M363,124.2c0,0-37.9-14-36.5,6.1s40.2,18.7,36.5,29s-12.8,18.6-0.9,25.3c10.8,6.1,27.6-17.3,30.9-5.1
			s-8.4,25.7,8.4,36c14.4,8.8,50.5-33.7,61.3-28.1s-2.8,21.1,3.3,26.2c7,5.1,18.2,14,88-30.4c19.2-5.6,8.9,9.4,21.5,14.5
			s36,8.4,49.1-33.2s8-75.8,8-75.8L363,124.2z"/>
	</g>
	<g id="Path_2">
		<path class="st3" d="M438.2,177.3c0,0-3.7-13.6-57.1-29.5s-48.2-72.1,37.4-116.5c0,0,13.6,14,37.4,16.4c0,0,10.8-10.3,25.3-4.2
			s8.4-7.5,0-16.4s8-12.2,15.9-9.4s12.2,11.3,24.3-8.9s25.7-0.9,27.6,8.9s6.5-5.1,18.7-3.7s14.5,12.6,4.7,22.5s29.5-9.8,40.7,3.7
			s23.9,8,40.2-8c0,0,4.2,17.3,33.7,24.8s74.4,88.4-44.5,120.3c0,0-18.7-19.6-23.9-20.1s-16.4,8-29,8s-4.7,7.9,2.8,7.9
			s8,8.4-15.4,12.2c-17.5,2.8-25.5,6.3-26,16.1c-2.3,1.4-11,1.2-12.2,3.7c0,0,9.5-19.2-37.7-13.3c-7.5,0.9-10.8-1.4-3-8.2
			c8.3-7.3-3,0.7-19.9-7.7s-9.4-28.1-20.1-20.1S449.9,160,438.2,177.3z"/>
	</g>
	<g id="Path_3">
		<path class="st1" d="M451.6,108.7c0,22.7-11,42.1-26.7,50.5c-5.2,2.8-14,11.3-17.3,20.2c-3.3-10.3-12.5-17.7-18-20.9
			c-15-8.7-25.5-27.7-25.5-49.8c0-22.7,11-42.1,26.7-50.5c5.2-2.8,14-10.4,16.8-17.9c2.4,6.7,7.1,12.4,13.2,16
			C438.6,63.4,451.6,84.2,451.6,108.7z"/>
	</g>
	<g id="Path_4">
		<path class="st1" d="M700.5,108.7c0,22.7-11,42.1-26.7,50.5c-5.2,2.8-14,11.3-17.3,20.2c-3.3-10.3-12.5-17.7-18-20.9
			c-15-8.7-25.5-27.7-25.5-49.8c0-22.7,11-42.1,26.7-50.5c5.2-2.8,14-10.4,16.8-17.9c2.4,6.7,7.1,12.4,13.2,16
			C687.6,63.4,700.5,84.2,700.5,108.7z"/>
	</g>
	<g id="Path_5">
		<path class="st1" d="M541,197.7h6.5c0,0-11.7-9.4,0-15s26.7,0,26.2-9.8s-17.8-7.5-9.4-12.2s31.3-1.9,33.7-11.7
			s-13.1-12.6-10.8-16.9s22.5-24.8,13.6-34.2s-23-1.8-15.9-12.6s17.3-22,9.4-31.8s-24.3,3.7-24.8-2.3s7.5-9.4,6.1-18.2
			s-10.8-11.7-17.3-8.4s-8.4,4.7-8.9-1.4s-11.2-14-17.3-9.8s-13.1,21.5-21.5,15s-21.1-2.8-18.7,6.5s21,19.2,4.6,16.4
			s-27.6-1.4-26.7,8.4s31.8,28.1,18.2,28.1s-19.2-10.8-23.9,1.4s41.2,52.4,25.3,52.9s-17.8,14.5-8.4,20.6s41.2,3.3,32.3,9.4
			s-16.4,13.6-7,13.6s25.7-8,25.7-3.3S541,197.7,541,197.7z"/>
	</g>
	<g id="I">
		<g class="st0">
			<g>
				<path class="st3" d="M399.4,84h9.4v44h-9.4V84z"/>
			</g>
		</g>
	</g>
	<g id="H">
		<g class="st0">
			<g>
				<path class="st3" d="M544.7,107h-23.6v21h-10.7V78h10.7v19.6h23.6V78h10.7v50h-10.7V107z"/>
			</g>
		</g>
	</g>
	<g id="S">
		<g class="st0">
			<g>
				<path class="st3" d="M641.4,115.3c3.7,3.8,9.4,7,16.5,7c6.1,0,9-2.9,9-5.9c0-3.9-4.5-5.2-10.5-6.6c-8.5-2-19.4-4.3-19.4-15.9
					c0-8.7,7.5-15.7,19.7-15.7c8.3,0,15.1,2.5,20.3,7.3l-6.2,8.1c-4.2-3.9-9.8-5.7-14.9-5.7c-5,0-7.6,2.2-7.6,5.3
					c0,3.5,4.4,4.6,10.4,6c8.6,2,19.5,4.5,19.5,16.1c0,9.5-6.8,16.7-20.8,16.7c-10,0-17.2-3.4-22.1-8.3L641.4,115.3z"/>
			</g>
		</g>
	</g>
</g>
</svg>
