<svg id="Layer_1" data-name="Layer 1" xmlns="http://www.w3.org/2000/svg" viewBox="0 0 1069.29 416.18">
  <defs>
    <style>
      .cls-1, .cls-12, .cls-13, .cls-14, .cls-2, .cls-5 {
        isolation: isolate;
      }

      .cls-2 {
        font-size: 100px;
      }

      .cls-11, .cls-2, .cls-5 {
        fill: #fff;
      }

      .cls-2, .cls-5 {
        font-family: Futura-Bold, Futura;
      }

      .cls-12, .cls-13, .cls-14, .cls-2, .cls-5 {
        font-weight: 700;
      }

      .cls-3 {
        letter-spacing: 0em;
      }

      .cls-4 {
        letter-spacing: -0.05em;
      }

      .cls-5 {
        font-size: 50px;
      }

      .cls-6 {
        letter-spacing: -0.01em;
      }

      .cls-7 {
        letter-spacing: 0em;
      }

      .cls-8 {
        letter-spacing: -0.01em;
      }

      .cls-9 {
        fill: #9ed1e0;
      }

      .cls-10, .cls-12, .cls-13, .cls-14 {
        fill: #74a951;
      }

      .cls-12 {
        font-size: 66px;
      }

      .cls-12, .cls-13, .cls-14 {
        font-family: ProximaNova-Bold, Proxima Nova;
      }

      .cls-13 {
        font-size: 75px;
      }

      .cls-14 {
        font-size: 78px;
      }
    </style>
  </defs>
  <title>Artboard 4</title>
  <g>
    <g id="IDRÆTSHØJSKOLEN" class="cls-1">
      <text class="cls-2" transform="translate(0 320.98)">IDRÆ<tspan class="cls-3" x="289.4" y="0">T</tspan><tspan x="342.9" y="0">SHØJS</tspan><tspan class="cls-4" x="700.89" y="0">K</tspan><tspan x="775.49" y="0">OLEN</tspan></text>
    </g>
    <g id="SØNDERBORG" class="cls-1">
      <text class="cls-5" transform="translate(343 398.98)">SØNDER<tspan class="cls-6" x="227.35" y="0">B</tspan><tspan class="cls-7" x="261.65" y="0">O</tspan><tspan class="cls-8" x="307.9" y="0">R</tspan><tspan class="cls-7" x="342.85" y="0">G</tspan></text>
    </g>
    <g id="logo">
      <path id="Path_1" data-name="Path 1" class="cls-9" d="M363,124.18s-37.91-14-36.5,6.09,40.25,18.72,36.5,29-12.77,18.58-.93,25.28c10.76,6.08,27.61-17.32,30.88-5.15s-8.42,25.74,8.43,36c14.4,8.8,50.54-33.7,61.31-28.08s-2.81,21.06,3.27,26.21c7,5.15,18.25,14,88-30.42,19.18-5.61,8.89,9.36,21.52,14.51s36,8.42,49.14-33.23,8-75.81,8-75.81Z"/>
      <path id="Path_2" data-name="Path 2" class="cls-10" d="M438.23,177.32s-3.74-13.57-57.1-29.49S332.93,75.76,418.57,31.3c0,0,13.57,14,37.44,16.38,0,0,10.76-10.3,25.27-4.21s8.43-7.49,0-16.38,8-12.17,15.91-9.36S509.36,29,521.53,8.84s25.74-.94,27.61,8.89,6.55-5.15,18.72-3.74,14.51,12.63,4.68,22.46,29.49-9.83,40.72,3.74,23.87,8,40.25-7.95c0,0,4.21,17.31,33.7,24.8s74.41,88.45-44.46,120.27c0,0-18.72-19.65-23.87-20.12s-16.38,8-29,8-4.68,7.95,2.81,7.95,8,8.43-15.44,12.17c-17.55,2.81-25.51,6.32-26,16.15-2.34,1.4-11,1.17-12.17,3.74,0,0,9.51-19.24-37.67-13.34-7.49.94-10.76-1.4-3-8.19,8.33-7.32-3,.7-19.89-7.72s-9.36-28.08-20.13-20.12S449.93,160,438.23,177.32Z"/>
      <path id="Path_3" data-name="Path 3" class="cls-11" d="M451.57,108.74c0,22.68-11,42.12-26.73,50.46-5.23,2.78-14,11.31-17.26,20.21-3.28-10.3-12.48-17.7-18-20.9-15-8.66-25.49-27.68-25.49-49.77,0-22.68,11-42.12,26.72-50.45,5.24-2.77,14-10.39,16.8-17.88a30.48,30.48,0,0,0,13.25,16C438.63,63.4,451.57,84.18,451.57,108.74Z"/>
      <path id="Path_4" data-name="Path 4" class="cls-11" d="M700.55,108.74c0,22.68-11,42.12-26.73,50.46-5.23,2.78-14,11.32-17.27,20.21-3.27-10.3-12.47-17.7-18-20.9-15-8.66-25.49-27.69-25.49-49.77,0-22.68,11-42.12,26.72-50.45,5.24-2.78,14-10.39,16.8-17.88a30.42,30.42,0,0,0,13.25,16C687.61,63.4,700.55,84.18,700.55,108.74Z"/>
      <path id="Path_5" data-name="Path 5" class="cls-11" d="M541,197.66h6.55s-11.7-9.36,0-15,26.67,0,26.21-9.83-17.79-7.49-9.36-12.17,31.35-1.87,33.7-11.7-13.1-12.64-10.77-16.85,22.47-24.8,13.57-34.16S577.93,96.11,585,85.34s17.32-22,9.36-31.82-24.33,3.74-24.8-2.34,7.49-9.36,6.09-18.25-10.77-11.7-17.32-8.43-8.42,4.68-8.89-1.4-11.23-14-17.32-9.83-13.1,21.53-21.53,15-21.06-2.81-18.72,6.55S512.88,54,496.5,51.18s-27.61-1.4-26.67,8.43,31.82,28.08,18.25,28.08-19.19-10.77-23.87,1.4S505.4,141.5,489.48,142s-17.78,14.51-8.42,20.59,41.18,3.28,32.29,9.36-16.38,13.57-7,13.57,25.74-8,25.74-3.27S541,197.66,541,197.66Z"/>
      <g id="I" class="cls-1">
        <text class="cls-12" transform="translate(395.04 120.01)">I</text>
      </g>
      <g id="H" class="cls-1">
        <text class="cls-13" transform="translate(505.49 128.01)">H</text>
      </g>
      <g id="S" class="cls-1">
        <text class="cls-14" transform="translate(633.72 131.01)">S</text>
      </g>
    </g>
  </g>
</svg>
