<?xml version="1.0" encoding="utf-8"?>
<!-- Generator: Adobe Illustrator 24.0.3, SVG Export Plug-In . SVG Version: 6.00 Build 0)  -->
<svg version="1.1" id="Layer_1" xmlns="http://www.w3.org/2000/svg" xmlns:xlink="http://www.w3.org/1999/xlink" x="0px" y="0px"
	 viewBox="0 0 1069.3 416.2" style="enable-background:new 0 0 1069.3 416.2;" xml:space="preserve">
<style type="text/css">
	.st0{fill:#FFFFFF;}
	.st1{font-family:'Futura-Bold';}
	.st2{font-size:100px;}
	.st3{letter-spacing:-5;}
	.st4{font-size:50px;}
	.st5{fill:#9ED1E0;}
	.st6{fill:#74A951;}
	.st7{enable-background:new    ;}
</style>
<title>Artboard 4</title>
<g>
	<g id="IDRÆTSHØJSKOLEN">
		<text transform="matrix(1 0 0 1 0 320.98)" class="st0 st1 st2">IDRÆ</text>
		<text transform="matrix(1 0 0 1 289.4 320.98)" class="st0 st1 st2">T</text>
		<text transform="matrix(1 0 0 1 342.9 320.98)" class="st0 st1 st2">SHØJS</text>
		<text transform="matrix(1 0 0 1 700.89 320.98)" class="st0 st1 st2 st3">K</text>
		<text transform="matrix(1 0 0 1 775.49 320.98)" class="st0 st1 st2">OLEN</text>
	</g>
	<g id="SØNDERBORG">
		<text transform="matrix(1 0 0 1 343 398.98)" class="st0 st1 st4">SØNDER</text>
		<text transform="matrix(1 0 0 1 570.35 398.98)" class="st0 st1 st4">B</text>
		<text transform="matrix(1 0 0 1 604.65 398.98)" class="st0 st1 st4">O</text>
		<text transform="matrix(1 0 0 1 650.9 398.98)" class="st0 st1 st4">R</text>
		<text transform="matrix(1 0 0 1 685.85 398.98)" class="st0 st1 st4">G</text>
	</g>
	<path id="Path_1" class="st5" d="M363,124.2c0,0-37.9-14-36.5,6.1s40.2,18.7,36.5,29s-12.8,18.6-0.9,25.3
		c10.8,6.1,27.6-17.3,30.9-5.1s-8.4,25.7,8.4,36c14.4,8.8,50.5-33.7,61.3-28.1s-2.8,21.1,3.3,26.2c7,5.1,18.2,14,88-30.4
		c19.2-5.6,8.9,9.4,21.5,14.5s36,8.4,49.1-33.2s8-75.8,8-75.8L363,124.2z"/>
	<path id="Path_2" class="st6" d="M438.2,177.3c0,0-3.7-13.6-57.1-29.5s-48.2-72.1,37.4-116.5c0,0,13.6,14,37.4,16.4
		c0,0,10.8-10.3,25.3-4.2s8.4-7.5,0-16.4s8-12.2,15.9-9.4s12.2,11.3,24.3-8.9s25.7-0.9,27.6,8.9s6.5-5.1,18.7-3.7
		s14.5,12.6,4.7,22.5s29.5-9.8,40.7,3.7s23.9,8,40.2-8c0,0,4.2,17.3,33.7,24.8s74.4,88.4-44.5,120.3c0,0-18.7-19.6-23.9-20.1
		s-16.4,8-29,8s-4.7,7.9,2.8,7.9s8,8.4-15.4,12.2c-17.5,2.8-25.5,6.3-26,16.1c-2.3,1.4-11,1.2-12.2,3.7c0,0,9.5-19.2-37.7-13.3
		c-7.5,0.9-10.8-1.4-3-8.2c8.3-7.3-3,0.7-19.9-7.7s-9.4-28.1-20.1-20.1S449.9,160,438.2,177.3z"/>
	<path id="Path_3" class="st0" d="M451.6,108.7c0,22.7-11,42.1-26.7,50.5c-5.2,2.8-14,11.3-17.3,20.2c-3.3-10.3-12.5-17.7-18-20.9
		c-15-8.7-25.5-27.7-25.5-49.8c0-22.7,11-42.1,26.7-50.5c5.2-2.8,14-10.4,16.8-17.9c2.4,6.7,7.1,12.4,13.2,16
		C438.6,63.4,451.6,84.2,451.6,108.7z"/>
	<path id="Path_4" class="st0" d="M700.5,108.7c0,22.7-11,42.1-26.7,50.5c-5.2,2.8-14,11.3-17.3,20.2c-3.3-10.3-12.5-17.7-18-20.9
		c-15-8.7-25.5-27.7-25.5-49.8c0-22.7,11-42.1,26.7-50.5c5.2-2.8,14-10.4,16.8-17.9c2.4,6.7,7.1,12.4,13.2,16
		C687.6,63.4,700.5,84.2,700.5,108.7z"/>
	<path id="Path_5" class="st0" d="M541,197.7h6.5c0,0-11.7-9.4,0-15s26.7,0,26.2-9.8s-17.8-7.5-9.4-12.2s31.3-1.9,33.7-11.7
		s-13.1-12.6-10.8-16.9s22.5-24.8,13.6-34.2s-23-1.8-15.9-12.6s17.3-22,9.4-31.8s-24.3,3.7-24.8-2.3s7.5-9.4,6.1-18.2
		s-10.8-11.7-17.3-8.4s-8.4,4.7-8.9-1.4s-11.2-14-17.3-9.8s-13.1,21.5-21.5,15s-21.1-2.8-18.7,6.5s21,19.2,4.6,16.4
		s-27.6-1.4-26.7,8.4s31.8,28.1,18.2,28.1s-19.2-10.8-23.9,1.4s41.2,52.4,25.3,52.9s-17.8,14.5-8.4,20.6s41.2,3.3,32.3,9.4
		s-16.4,13.6-7,13.6s25.7-8,25.7-3.3S541,197.7,541,197.7z"/>
	<g id="I">
		<g class="st7">
			<path class="st6" d="M399.4,84h9.4v44h-9.4V84z"/>
		</g>
	</g>
	<g id="H">
		<g class="st7">
			<path class="st6" d="M544.7,107h-23.6v21h-10.7V78h10.7v19.6h23.6V78h10.7v50h-10.7V107z"/>
		</g>
	</g>
	<g id="S">
		<g class="st7">
			<path class="st6" d="M641.4,115.3c3.7,3.8,9.4,7,16.5,7c6.1,0,9-2.9,9-5.9c0-3.9-4.5-5.2-10.5-6.6c-8.5-2-19.4-4.3-19.4-15.9
				c0-8.7,7.5-15.7,19.7-15.7c8.3,0,15.1,2.5,20.3,7.3l-6.2,8.1c-4.2-3.9-9.8-5.7-14.9-5.7c-5,0-7.6,2.2-7.6,5.3
				c0,3.5,4.4,4.6,10.4,6c8.6,2,19.5,4.5,19.5,16.1c0,9.5-6.8,16.7-20.8,16.7c-10,0-17.2-3.4-22.1-8.3L641.4,115.3z"/>
		</g>
	</g>
</g>
</svg>
